<svg width="59" height="59" viewBox="0 0 59 59" fill="none" xmlns="http://www.w3.org/2000/svg">
<rect width="58.4117" height="58.9991" rx="8" fill="#3D3D57"/>
<g filter="url(#filter0_d_774_1602)">
<path d="M30.6039 8.04487C27.3326 7.83144 24.0566 8.38146 21.0344 9.65149C18.0122 10.9215 15.3267 12.8768 13.1899 15.3629C11.0412 17.8515 9.49633 20.8028 8.6757 23.9866C7.85507 27.1704 7.78087 30.5008 8.45886 33.718C9.13686 36.9352 10.5487 39.9524 12.5844 42.5343C14.6201 45.1161 17.2246 47.193 20.1949 48.6029C23.1563 50.0043 26.4033 50.6972 29.6788 50.6267C32.9543 50.5563 36.1685 49.7244 39.0669 48.1969C39.1595 48.1494 39.263 48.1273 39.3669 48.1329C39.4708 48.1386 39.5713 48.1721 39.6579 48.2299C42.4105 50.0732 45.6574 51.0383 48.9699 50.9979C49.0479 50.9979 49.1252 50.9825 49.1973 50.9525C49.2694 50.9226 49.3348 50.8788 49.3899 50.8235C49.445 50.7682 49.4886 50.7026 49.5183 50.6304C49.548 50.5582 49.5631 50.4809 49.5629 50.4029V43.1689C49.5648 43.0271 49.5162 42.8892 49.4259 42.7799C49.3363 42.6706 49.2102 42.5975 49.0709 42.5739C48.3893 42.4657 47.7236 42.2739 47.0889 42.0029C47.0104 41.968 46.9404 41.9163 46.8839 41.8515C46.8274 41.7868 46.7858 41.7104 46.7619 41.6279C46.7381 41.5451 46.732 41.4582 46.7439 41.3729C46.7563 41.2873 46.787 41.2055 46.8339 41.1329C49.9619 36.4317 51.1017 30.6835 50.0042 25.1445C48.9067 19.6054 45.6611 14.7261 40.9769 11.5729C37.8841 9.49643 34.2972 8.2748 30.5799 8.03187L30.6039 8.04487ZM16.3869 29.3179C16.3808 26.7685 17.1297 24.2743 18.5391 22.15C19.9486 20.0256 21.9556 18.3661 24.3069 17.3809C26.6538 16.4028 29.2389 16.146 31.7324 16.6433C34.2259 17.1406 36.5147 18.3693 38.3069 20.1729C39.6517 21.5251 40.6812 23.1578 41.3215 24.9542C41.9619 26.7507 42.1974 28.6664 42.0112 30.5644C41.8249 32.4624 41.2216 34.2959 40.2443 35.9336C39.267 37.5713 37.9399 38.9728 36.3579 40.0379C33.8894 41.6941 30.9216 42.4399 27.9634 42.1472C25.0052 41.8545 22.241 40.5417 20.1449 38.4339C17.7346 36.0111 16.3804 32.7334 16.3779 29.3159L16.3869 29.3179Z" fill="#FFD159"/>
</g>
<defs>
<filter id="filter0_d_774_1602" x="4" y="5" width="50.4141" height="50.999" filterUnits="userSpaceOnUse" color-interpolation-filters="sRGB">
<feFlood flood-opacity="0" result="BackgroundImageFix"/>
<feColorMatrix in="SourceAlpha" type="matrix" values="0 0 0 0 0 0 0 0 0 0 0 0 0 0 0 0 0 0 127 0" result="hardAlpha"/>
<feOffset dy="1"/>
<feGaussianBlur stdDeviation="2"/>
<feComposite in2="hardAlpha" operator="out"/>
<feColorMatrix type="matrix" values="0 0 0 0 0 0 0 0 0 0 0 0 0 0 0 0 0 0 0.4 0"/>
<feBlend mode="normal" in2="BackgroundImageFix" result="effect1_dropShadow_774_1602"/>
<feBlend mode="normal" in="SourceGraphic" in2="effect1_dropShadow_774_1602" result="shape"/>
</filter>
</defs>
</svg>
